<?xml version="1.0" encoding="UTF-8"?>
<!DOCTYPE svg PUBLIC "-//W3C//DTD SVG 1.1//EN" "http://www.w3.org/Graphics/SVG/1.1/DTD/svg11.dtd">
<svg xmlns="http://www.w3.org/2000/svg" version="1.1" width="30px" height="30px" style="shape-rendering:geometricPrecision; text-rendering:geometricPrecision; image-rendering:optimizeQuality; fill-rule:evenodd; clip-rule:evenodd" xmlns:xlink="http://www.w3.org/1999/xlink" viewBox="0 0 2000 2014">
	<g><path style="opacity:0.999" fill="#0071f3" d="M 954.5,-0.5 C 983.833,-0.5 1013.17,-0.5 1042.5,-0.5C 1305.99,15.0284 1530.16,116.028 1715,302.5C 1891.13,488.324 1985.13,709.991 1997,967.5C 2004.39,1214.44 1933.39,1435.44 1784,1630.5C 1643.02,1807.81 1462.52,1925.65 1242.5,1984C 1176.64,2000.34 1109.98,2010.17 1042.5,2013.5C 1013.17,2013.5 983.833,2013.5 954.5,2013.5C 685.267,1997.22 457.767,1892.22 272,1698.5C 104.158,1515.71 13.3249,1299.71 -0.5,1050.5C -0.5,1020.5 -0.5,990.5 -0.5,960.5C 14.2885,704.344 109.788,484.011 286,299.5C 470.118,115.057 692.952,15.0566 954.5,-0.5 Z"/></g>
	<g><path style="opacity:1" fill="#fefefe" d="M 581.5,635.5 C 622.5,635.5 663.5,635.5 704.5,635.5C 704.5,634.167 704.5,632.833 704.5,631.5C 711.005,583.798 717.838,536.132 725,488.5C 725.846,450.605 743.346,423.771 777.5,408C 783.63,405.551 789.963,403.884 796.5,403C 921.167,402.333 1045.83,402.333 1170.5,403C 1306.04,410.001 1413.54,467.834 1493,576.5C 1560.96,678.893 1581.29,790.226 1554,910.5C 1516.99,1045.17 1433.83,1138.67 1304.5,1191C 1269.69,1204.36 1233.69,1212.36 1196.5,1215C 1144.51,1216.42 1092.51,1216.92 1040.5,1216.5C 1023.86,1324.52 1007.03,1432.52 990,1540.5C 979.767,1575.73 956.6,1596.57 920.5,1603C 826.167,1603.67 731.833,1603.67 637.5,1603C 599.124,1596.29 576.29,1573.79 569,1535.5C 568.333,1526.17 568.333,1516.83 569,1507.5C 594.572,1333.75 621.405,1160.25 649.5,987C 613.5,986.667 577.5,986.333 541.5,986C 506.419,976.576 490.585,953.743 494,917.5C 501.041,893.792 516.541,878.958 540.5,873C 583.165,872.5 625.832,872.333 668.5,872.5C 668.334,867.489 668.501,862.489 669,857.5C 674.889,822.274 680.056,786.941 684.5,751.5C 649.498,751.667 614.498,751.5 579.5,751C 543.986,742.485 527.153,719.985 529,683.5C 535.579,655.416 553.079,639.416 581.5,635.5 Z"/></g>
	<g><path style="opacity:1" fill="#0171f3" d="M 836.5,519.5 C 953.5,519.333 1070.5,519.5 1187.5,520C 1288.91,531.252 1365.08,580.752 1416,668.5C 1464.73,763.727 1463.06,858.06 1411,951.5C 1355.93,1037.65 1277.1,1084.81 1174.5,1093C 1116.5,1093.33 1058.5,1093.67 1000.5,1094C 963.973,1102.19 941.806,1124.69 934,1161.5C 917.499,1267.51 900.999,1373.51 884.5,1479.5C 818.833,1479.5 753.167,1479.5 687.5,1479.5C 712.477,1313.79 737.643,1148.12 763,982.5C 897.43,981.668 1031.93,981.168 1166.5,981C 1220.76,976.962 1264.26,953.462 1297,910.5C 1330.84,861.455 1338.84,808.455 1321,751.5C 1294.25,685.088 1245.41,646.588 1174.5,636C 1056.5,634.486 938.505,633.652 820.5,633.5C 825.553,595.462 830.886,557.462 836.5,519.5 Z"/></g>
	<g><path style="opacity:1" fill="#4497f6" d="M 704.5,631.5 C 704.5,632.833 704.5,634.167 704.5,635.5C 663.5,635.5 622.5,635.5 581.5,635.5C 621.997,634.501 662.663,634.168 703.5,634.5C 703.263,633.209 703.596,632.209 704.5,631.5 Z"/></g>
	<g><path style="opacity:1" fill="#0171f3" d="M 800.5,747.5 C 920.833,747.963 1041.17,748.463 1161.5,749C 1184.88,752.258 1201.71,764.425 1212,785.5C 1221.39,812.543 1215.56,835.71 1194.5,855C 1185.89,861.47 1176.22,865.47 1165.5,867C 1037.83,867.5 910.167,867.667 782.5,867.5C 788.664,827.522 794.664,787.522 800.5,747.5 Z"/></g>
</svg>
